<svg width="650" height="585" xmlns="http://www.w3.org/2000/svg" xmlns:xlink="http://www.w3.org/1999/xlink" xml:space="preserve" fill="#FFCC66" overflow="hidden"><defs><clipPath id="clip0"><rect x="280" y="0" width="720" height="585"/></clipPath></defs><g clip-path="url(#clip0)" transform="translate(-280 0)"><path d="M599.712 43.6568 119.944 43.6568C93.484 43.6568 71.9707 65.1824 71.9707 91.6387L71.9707 379.497C71.9707 405.946 93.484 427.471 119.944 427.471L263.894 427.471 263.918 450.971C263.484 452.565 259.999 456.782 257.69 459.565 250.184 468.621 239.883 481.066 239.883 499.435 239.883 525.835 261.405 535.417 275.866 535.417L443.79 535.417C458.259 535.417 479.772 525.835 479.772 499.435 479.772 481.074 469.479 468.62 461.97 459.565 459.661 456.778 456.159 452.565 455.786 451.457L455.786 427.47 599.715 427.47C626.179 427.47 647.689 405.945 647.689 379.497L647.689 91.6384C647.689 65.1821 626.179 43.6565 599.715 43.6565ZM443.785 511.427 276.005 511.427C270.467 511.294 263.872 509.085 263.872 499.427 263.872 489.709 270.125 482.167 276.169 474.854 281.908 467.919 287.855 460.731 287.855 451.449L287.859 427.466 431.788 427.466 431.788 451.457C431.788 460.738 437.736 467.923 443.47 474.862 449.522 482.175 455.779 489.706 455.779 499.435 455.779 509.085 449.181 511.294 443.78 511.427ZM623.696 379.495C623.696 392.731 612.938 403.486 599.714 403.486L455.785 403.486 431.794 403.482 119.94 403.482C106.716 403.482 95.9493 392.727 95.9493 379.491L95.9493 91.6326C95.9493 78.4045 106.716 67.6417 119.94 67.6417L599.697 67.6417C612.921 67.6417 623.68 78.4004 623.68 91.6326ZM575.723 91.6366 143.935 91.6366C130.711 91.6366 119.944 102.395 119.944 115.628L119.944 355.506C119.944 368.746 130.711 379.497 143.935 379.497L575.723 379.497C588.947 379.497 599.714 368.746 599.714 355.506L599.714 115.617C599.714 102.393 588.947 91.6346 575.723 91.6346ZM143.935 355.5 143.935 115.611 575.723 115.611 575.747 355.5ZM263.869 145.61C220.88 145.61 185.905 180.585 185.905 223.574 185.905 266.564 220.88 301.539 263.869 301.539 291.828 301.539 316.317 286.704 330.083 264.524L374.72 292.423 404.658 217.579 341.528 217.579C338.448 177.388 304.832 145.61 263.869 145.61ZM325.317 247.409 296.772 229.567 329.529 229.567C328.971 235.812 327.497 241.788 325.316 247.409ZM254.958 217.575 319.927 258.175C308.285 276.965 287.543 289.539 263.869 289.539 227.502 289.539 197.905 259.946 197.905 223.574 197.905 187.202 227.502 157.61 263.869 157.61 298.209 157.61 326.485 184.006 329.529 217.583ZM368.919 274.66 335.7 253.898C338.909 246.328 340.877 238.128 341.531 229.57L386.955 229.57ZM509.754 349.508 569.719 349.508 569.719 121.617 509.754 121.617ZM521.745 133.615 557.728 133.615 557.728 145.606 521.745 145.606ZM521.745 157.605 557.728 157.605 557.728 169.597 521.745 169.597ZM521.745 181.596 557.728 181.596 557.728 193.588 521.745 193.588ZM521.745 205.579 557.728 205.579 557.728 217.57 521.745 217.57ZM521.745 229.57 557.728 229.57 557.728 241.561 521.745 241.561ZM521.745 253.561 557.728 253.561 557.728 265.561 521.745 265.561ZM521.745 277.544 557.728 277.544 557.728 289.543 521.745 289.543ZM521.745 301.535 557.728 301.535 557.728 313.534 521.745 313.534ZM521.745 325.526 557.728 325.526 557.728 337.517 521.745 337.517Z" transform="matrix(1.00049 0 0 1 280 -4.38447e-14)"/><path d="M19.2927-1.15657C18.2967-0.642541 17.2566-0.257016 16.1764 0 15.1041 0.265046 13.9797 0.401583 12.8031 0.401583 9.30934 0.401583 6.5424-0.570258 4.4983-2.52203 2.45019-4.48173 1.43014-7.13229 1.43014-10.4735 1.43014-13.8227 2.45018-16.4732 4.4983-18.425 6.5424-20.3847 9.30934-21.3646 12.8031-21.3646 13.9797-21.3646 15.1042-21.2281 16.1764-20.963 17.2567-20.706 18.2968-20.3205 19.2927-19.8065L19.2927-15.4693C18.2847-16.1439 17.2928-16.6419 16.3209-16.9631 15.3451-17.2844 14.317-17.445 13.2368-17.445 11.3091-17.445 9.79109-16.8226 8.69075-15.5817 7.5864-14.3488 7.03618-12.646 7.03618-10.4734 7.03618-8.30883 7.58636-6.60615 8.69075-5.36517 9.79109-4.13232 11.3091-3.51784 13.2368-3.51784 14.317-3.51784 15.3451-3.67045 16.3209-3.98368 17.2928-4.30495 18.2848-4.80694 19.2927-5.4937Z" transform="matrix(1.00049 0 0 1 352 662.074)"/><path d="M14.1194-11.4537C13.6697-11.6545 13.2239-11.8071 12.7862-11.9035 12.3565-12.0079 11.9227-12.0641 11.485-12.0641 10.1879-12.0641 9.19193-11.6464 8.49727-10.8111 7.7985-9.98381 7.45317-8.80317 7.45317-7.26107L7.45317-0.000359823 2.42531-0.000359823 2.42531-15.7421 7.45317-15.7421 7.45317-13.1559C8.09571-14.184 8.83468-14.931 9.66988-15.4048 10.5132-15.8867 11.5212-16.1276 12.6898-16.1276 12.8585-16.1276 13.0432-16.1156 13.236-16.0955 13.4368-16.0835 13.7259-16.0554 14.1034-16.0152Z" transform="matrix(1.00049 0 0 1 373.138 662.074)"/><path d="M18.1361-7.91929 18.1361-6.47362 6.36167-6.47362C6.49018-5.29299 6.91586-4.40948 7.64675-3.82317 8.37362-3.23283 9.39765-2.93967 10.7149-2.93967 11.775-2.93967 12.8553-3.09228 13.9597-3.40551 15.0721-3.72678 16.2126-4.20065 17.3812-4.83513L17.3812-0.963852C16.1925-0.514074 15.0038-0.176745 13.815 0.0481546 12.6264 0.281073 11.4376 0.401552 10.2489 0.401552 7.39765 0.401552 5.18083-0.321301 3.59854-1.76705 2.02436-3.21271 1.23717-5.24078 1.23717-7.85515 1.23717-10.4253 2.01224-12.4412 3.56636-13.9111 5.11648-15.3889 7.24889-16.1278 9.95969-16.1278 12.4334-16.1278 14.4133-15.3768 15.9031-13.8789 17.389-12.389 18.136-10.4012 18.136-7.9193ZM12.9637-9.5899C12.9637-10.5417 12.6826-11.3087 12.1284-11.887 11.5702-12.4733 10.8433-12.7705 9.94376-12.7705 8.9679-12.7705 8.17672-12.4974 7.56636-11.9513 6.95599-11.4051 6.57444-10.618 6.42582-9.5899Z" transform="matrix(1.00049 0 0 1 387.341 662.074)"/><path d="M9.47753-7.08399C8.42541-7.08399 7.63421-6.90728 7.10013-6.5539 6.57405-6.2005 6.31302-5.67442 6.31302-4.97972 6.31302-4.33718 6.52586-3.83117 6.95556-3.4697 7.38124-3.1163 7.97158-2.93961 8.7226-2.93961 9.67436-2.93961 10.4735-3.27694 11.116-3.95162 11.7666-4.63431 12.0959-5.48569 12.0959-6.50574L12.0959-7.08403ZM17.1559-8.97953 17.1559 0 12.0959 0 12.0959-2.32918C11.4212-1.3734 10.6583-0.678626 9.81484-0.240979 8.96748 0.184702 7.93944 0.401562 6.73064 0.401562 5.10023 0.401562 3.77896-0.0682944 2.76293-1.01203 1.74289-1.96379 1.23687-3.20068 1.23687-4.72273 1.23687-6.56204 1.86736-7.91137 3.13241-8.77073 4.40547-9.63816 6.40135-10.0719 9.12408-10.0719L12.0958-10.0719 12.0958-10.4734C12.0958-11.2646 11.7786-11.8428 11.1481-12.2083 10.5135-12.5818 9.53368-12.7705 8.2084-12.7705 7.1241-12.7705 6.1202-12.6621 5.18846-12.4493 4.26481-12.2324 3.40939-11.9111 2.6183-11.4854L2.6183-15.3246C3.68656-15.5817 4.76274-15.7784 5.84704-15.919 6.93936-16.0555 8.03168-16.1278 9.124-16.1278 11.9592-16.1278 14.0073-15.5656 15.2603-14.4412 16.5213-13.3248 17.1559-11.5055 17.1559-8.97958Z" transform="matrix(1.00049 0 0 1 406.872 662.074)"/><path d="M7.91929-20.2077 7.91929-15.7419 13.1078-15.7419 13.1078-12.1437 7.91929-12.1437 7.91929-5.46129C7.91929-4.7304 8.06386-4.24046 8.35301-3.98344 8.64216-3.72643 9.21241-3.59792 10.0718-3.59792L12.658-3.59792 12.658 0.00030842 8.35301 0.00030842C6.36113 0.00030842 4.94754-0.409314 4.11224-1.23656 3.28497-2.07186 2.87538-3.47743 2.87538-5.46129L2.87538-12.1437 0.385504-12.1437 0.385504-15.7419 2.87538-15.7419 2.87538-20.2077Z" transform="matrix(1.00049 0 0 1 426.306 662.074)"/><path d="M18.1361-7.91929 18.1361-6.47362 6.36167-6.47362C6.49018-5.29299 6.91586-4.40948 7.64675-3.82317 8.37362-3.23283 9.39765-2.93967 10.7149-2.93967 11.775-2.93967 12.8553-3.09228 13.9597-3.40551 15.0721-3.72678 16.2126-4.20065 17.3812-4.83513L17.3812-0.963852C16.1925-0.514074 15.0038-0.176745 13.815 0.0481546 12.6264 0.281073 11.4376 0.401552 10.2489 0.401552 7.39765 0.401552 5.18083-0.321301 3.59854-1.76705 2.02436-3.21271 1.23717-5.24078 1.23717-7.85515 1.23717-10.4253 2.01224-12.4412 3.56636-13.9111 5.11648-15.3889 7.24889-16.1278 9.95969-16.1278 12.4334-16.1278 14.4133-15.3768 15.9031-13.8789 17.389-12.389 18.136-10.4012 18.136-7.9193ZM12.9637-9.5899C12.9637-10.5417 12.6826-11.3087 12.1284-11.887 11.5702-12.4733 10.8433-12.7705 9.94376-12.7705 8.9679-12.7705 8.17672-12.4974 7.56636-11.9513 6.95599-11.4051 6.57444-10.618 6.42582-9.5899Z" transform="matrix(1.00049 0 0 1 440.075 662.074)"/><path d="M13.1243-13.445 13.1243-21.8784 18.1843-21.8784 18.1843-0.000102807 13.1243-0.000102807 13.1243-2.28117C12.4376-1.34949 11.6786-0.666803 10.8432-0.241081 10.0078 0.184641 9.03608 0.40146 7.93574 0.40146 5.99609 0.40146 4.40577-0.369589 3.1649-1.91169 1.92001-3.45379 1.30153-5.43363 1.30153-7.85514 1.30153-10.2848 1.91997-12.2726 3.1649-13.8147 4.40577-15.3568 5.99609-16.1279 7.93574-16.1279 9.02806-16.1279 9.99187-15.907 10.8272-15.4693 11.6705-15.0275 12.4375-14.3529 13.1243-13.4452ZM9.81515-3.24468C10.8834-3.24468 11.7026-3.63422 12.2728-4.41729 12.8391-5.20842 13.1242-6.35293 13.1242-7.85493 13.1242-9.35282 12.8391-10.4934 12.2728-11.2764 11.7026-12.0676 10.8833-12.4651 9.81515-12.4651 8.74287-12.4651 7.92371-12.0675 7.35745-11.2764 6.78719-10.4933 6.50609-9.35282 6.50609-7.85493 6.50609-6.35303 6.78721-5.20849 7.35745-4.41729 7.92369-3.63419 8.74298-3.24468 9.81515-3.24468Z" transform="matrix(1.00049 0 0 1 459.606 662.074)"/><path d="M10.7947-3.24478C11.875-3.24478 12.6983-3.63432 13.2684-4.41739 13.8347-5.20852 14.1198-6.35303 14.1198-7.85504 14.1198-9.35293 13.8347-10.4935 13.2684-11.2765 12.6982-12.0677 11.8749-12.4652 10.7947-12.4652 9.71039-12.4652 8.8831-12.0676 8.30481-11.2765 7.73456-10.4814 7.45345-9.3409 7.45345-7.85504 7.45345-6.36516 7.73457-5.22463 8.30481-4.43353 8.8831-3.63839 9.71039-3.24488 10.7947-3.24488ZM7.45347-13.4451C8.14822-14.3527 8.91528-15.0274 9.75058-15.4692 10.5939-15.9069 11.5657-16.1278 12.6581-16.1278 14.6057-16.1278 16.2-15.3567 17.4449-13.8146 18.6858-12.2726 19.3083-10.2847 19.3083-7.85506 19.3083-5.43345 18.6858-3.4537 17.4449-1.91161 16.2-0.369507 14.6057 0.401542 12.6581 0.401542 11.5657 0.401542 10.5939 0.184682 9.75058-0.240999 8.91528-0.678729 8.14824-1.35738 7.45347-2.28109L7.45347-2.05613e-05 2.42562-2.05613e-05 2.42562-21.8783 7.45347-21.8783Z" transform="matrix(1.00049 0 0 1 490.25 662.074)"/><path d="M0.353397-15.7417 5.38125-15.7417 9.62202-5.05911 13.2203-15.7417 18.2481-15.7417 11.6299 1.49481C10.9633 3.23769 10.1883 4.45851 9.30075 5.15729 8.40922 5.86408 7.24462 6.21743 5.79896 6.21743L2.87534 6.21743 2.87534 2.90829 4.44952 2.90829C5.3049 2.90829 5.92736 2.76774 6.31289 2.49064 6.70644 2.22158 7.01165 1.73967 7.2285 1.04498L7.37307 0.611257Z" transform="matrix(1.00049 0 0 1 510.866 662.074)"/><path d="M11.0517-12.8673C11.895-12.8673 12.5376-13.052 12.9793-13.4295 13.4291-13.803 13.654-14.3531 13.654-15.0841 13.654-15.7989 13.4291-16.3451 12.9793-16.7226 12.5376-17.1081 11.895-17.3009 11.0517-17.3009L8.0478-17.3009 8.0478-12.8673ZM11.2284-3.67893C12.3207-3.67893 13.14-3.90784 13.6861-4.36967 14.2323-4.82748 14.5053-5.52624 14.5053-6.45787 14.5053-7.36546 14.2323-8.04819 13.6861-8.49797 13.148-8.94775 12.3287-9.17264 11.2284-9.17264L8.04778-9.17264 8.04778-3.67886ZM16.2563-11.2288C17.4209-10.8955 18.3204-10.2731 18.9549-9.36547 19.5975-8.45386 19.9187-7.34141 19.9187-6.02426 19.9187-4.0002 19.232-2.49028 17.8626-1.4944 16.4892-0.498457 14.4129-0.000514033 11.63-0.000514033L2.65043-0.000514033 2.65043-20.9792 10.7625-20.9792C13.674-20.9792 15.7823-20.5375 17.0915-19.6621 18.4086-18.7826 19.0673-17.373 19.0673-15.4373 19.0673-14.4093 18.8263-13.5338 18.3444-12.8189 17.8625-12.1122 17.1638-11.5821 16.2562-11.2286Z" transform="matrix(1.00049 0 0 1 539.666 662.074)"/><path d="M18.1361-7.91929 18.1361-6.47362 6.36167-6.47362C6.49018-5.29299 6.91586-4.40948 7.64675-3.82317 8.37362-3.23283 9.39765-2.93967 10.7149-2.93967 11.775-2.93967 12.8553-3.09228 13.9597-3.40551 15.0721-3.72678 16.2126-4.20065 17.3812-4.83513L17.3812-0.963852C16.1925-0.514074 15.0038-0.176745 13.815 0.0481546 12.6264 0.281073 11.4376 0.401552 10.2489 0.401552 7.39765 0.401552 5.18083-0.321301 3.59854-1.76705 2.02436-3.21271 1.23717-5.24078 1.23717-7.85515 1.23717-10.4253 2.01224-12.4412 3.56636-13.9111 5.11648-15.3889 7.24889-16.1278 9.95969-16.1278 12.4334-16.1278 14.4133-15.3768 15.9031-13.8789 17.389-12.389 18.136-10.4012 18.136-7.9193ZM12.9637-9.5899C12.9637-10.5417 12.6826-11.3087 12.1284-11.887 11.5702-12.4733 10.8433-12.7705 9.94376-12.7705 8.9679-12.7705 8.17672-12.4974 7.56636-11.9513 6.95599-11.4051 6.57444-10.618 6.42582-9.5899Z" transform="matrix(1.00049 0 0 1 561.616 662.074)"/><path d="M18.2482-9.5899 18.2482 0 13.1881 0 13.1881-7.341C13.1881-8.69836 13.156-9.63811 13.0917-10.1521 13.0275-10.6662 12.9191-11.0437 12.7705-11.2927 12.5777-11.614 12.3086-11.8629 11.9673-12.0477 11.634-12.2284 11.2525-12.3207 10.8268-12.3207 9.77464-12.3207 8.95136-11.9111 8.35303-11.0999 7.75065-10.2967 7.45347-9.17631 7.45347-7.74267L7.45347-0.000102807 2.42562-0.000102807 2.42562-15.7418 7.45347-15.7418 7.45347-13.4447C8.21247-14.3523 9.01562-15.027 9.86305-15.4688 10.7184-15.9065 11.6622-16.1274 12.6902-16.1274 14.5094-16.1274 15.8909-15.5652 16.8346-14.4407 17.7743-13.3244 18.2482-11.71 18.2482-9.58951Z" transform="matrix(1.00049 0 0 1 581.146 662.074)"/><path d="M2.65046-20.9787 8.0478-20.9787 8.0478-12.9952 16.0313-12.9952 16.0313-20.9787 21.4447-20.9787 21.4447 0 16.0313 0 16.0313-8.89914 8.0478-8.89914 8.0478 0 2.65046 0Z" transform="matrix(1.00049 0 0 1 611.678 662.074)"/><path d="M14.7137-15.2442 14.7137-11.421C13.6414-11.8708 12.6013-12.2081 11.5974-12.433 10.5894-12.6579 9.64171-12.7703 8.75418-12.7703 7.7984-12.7703 7.08759-12.6498 6.61776-12.4169 6.15593-12.18 5.92702-11.8105 5.92702-11.3086 5.92702-10.911 6.10373-10.6058 6.45711-10.3929 6.81051-10.1761 7.441-10.0155 8.35266-9.91104L9.23616-9.78253C11.8143-9.44922 13.5492-8.90708 14.4407-8.16014 15.3282-7.40917 15.774-6.23653 15.774-4.64221 15.774-2.95957 15.1516-1.69454 13.9107-0.851218 12.6778-0.0159145 10.8345 0.401788 8.38482 0.401788 7.3327 0.401788 6.25241 0.321471 5.14004 0.160831 4.03569 0.000195332 2.89916-0.244772 1.73457-0.578091L1.73457-4.40126C2.73051-3.90731 3.75051-3.53785 4.80273-3.2929 5.86287-3.05597 6.93915-2.93951 8.03147-2.93951 9.01536-2.93951 9.7543-3.07203 10.2482-3.34109 10.7381-3.61818 10.9871-4.02379 10.9871-4.56192 10.9871-5.01169 10.8144-5.34099 10.4731-5.55785 10.1277-5.78274 9.44903-5.95141 8.43298-6.07189L7.54948-6.18434C5.30861-6.46143 3.74246-6.97948 2.8429-7.74247 1.94334-8.50147 1.49356-9.65406 1.49356-11.1962 1.49356-12.8668 2.0598-14.1036 3.19624-14.9069 4.34079-15.7181 6.0957-16.1277 8.46508-16.1277 9.38472-16.1277 10.3525-16.0514 11.3726-15.9028 12.4006-15.7622 13.513-15.5414 14.7138-15.2442Z" transform="matrix(1.00049 0 0 1 635.781 662.074)"/><path d="M2.24889-6.13632 2.24889-15.7424 7.30893-15.7424 7.30893-14.1682C7.30893-13.3088 7.3009-12.2406 7.29286-10.9555 7.28082-9.67039 7.2768-8.81103 7.2768-8.38531 7.2768-7.10825 7.30893-6.19265 7.37318-5.63842 7.44547-5.08022 7.55791-4.67863 7.71051-4.43363 7.92335-4.10032 8.19644-3.8433 8.52975-3.66259 8.85906-3.4899 9.24057-3.40557 9.67029-3.40557 10.7184-3.40557 11.5417-3.80715 12.144-4.61036 12.7424-5.41354 13.0436-6.52996 13.0436-7.96761L13.0436-15.7424 18.0714-15.7424 18.0714-0.000616839 13.0436-0.000616839 13.0436-2.28169C12.2806-1.35803 11.4774-0.679346 10.634-0.241595 9.78665 0.184085 8.85092 0.400945 7.82286 0.400945 6.01171 0.400945 4.6302-0.153243 3.67852-1.26966 2.72274-2.38203 2.24889-4.00452 2.24889-6.13693Z" transform="matrix(1.00049 0 0 1 652.921 662.074)"/><path d="M12.7706-21.8783 12.7706-18.5691 9.99166-18.5691C9.28487-18.5691 8.78687-18.4406 8.49778-18.1836 8.21667-17.9266 8.08013-17.4768 8.08013-16.8343L8.08013-15.7419 12.3852-15.7419 12.3852-12.1437 8.08013-12.1437 8.08013-0.000205613 3.05227-0.000205613 3.05227-12.1437 0.546365-12.1437 0.546365-15.7419 3.05227-15.7419 3.05227-16.8343C3.05227-18.5451 3.52615-19.814 4.4819-20.6413 5.43366-21.4645 6.91554-21.8782 8.93147-21.8782Z" transform="matrix(1.00049 0 0 1 352 690.86)"/><path d="M14.1194-11.4537C13.6697-11.6545 13.2239-11.8071 12.7862-11.9035 12.3565-12.0079 11.9227-12.0641 11.485-12.0641 10.1879-12.0641 9.19193-11.6464 8.49727-10.8111 7.7985-9.98381 7.45317-8.80317 7.45317-7.26107L7.45317-0.000359823 2.42531-0.000359823 2.42531-15.7421 7.45317-15.7421 7.45317-13.1559C8.09571-14.184 8.83468-14.931 9.66988-15.4048 10.5132-15.8867 11.5212-16.1276 12.6898-16.1276 12.8585-16.1276 13.0432-16.1156 13.236-16.0955 13.4368-16.0835 13.7259-16.0554 14.1034-16.0152Z" transform="matrix(1.00049 0 0 1 364.532 690.86)"/><path d="M9.91117-12.5301C8.79479-12.5301 7.94335-12.1285 7.35704-11.3253 6.76671-10.5221 6.47354-9.36557 6.47354-7.85555 6.47354-6.34553 6.76671-5.18895 7.35704-4.38583 7.94336-3.59068 8.79469-3.19718 9.91117-3.19718 11.0035-3.19718 11.8388-3.59073 12.4171-4.38583 13.0034-5.18901 13.3006-6.34553 13.3006-7.85555 13.3006-9.36557 13.0034-10.5221 12.4171-11.3253 11.8388-12.1284 11.0035-12.5301 9.91117-12.5301ZM9.91117-16.1283C12.6179-16.1283 14.7342-15.3934 16.2563-13.9276 17.7743-12.4698 18.5374-10.4459 18.5374-7.85565 18.5374-5.27346 17.7743-3.24941 16.2563-1.78369 14.7342-0.325897 12.6179 0.400945 9.91117 0.400945 7.18844 0.400945 5.06404-0.325928 3.53397-1.78369 1.9999-3.24951 1.23687-5.27346 1.23687-7.85565 1.23687-10.4459 1.99989-12.4699 3.53397-13.9276 5.06404-15.3934 7.18844-16.1283 9.91117-16.1283Z" transform="matrix(1.00049 0 0 1 378.735 690.86)"/><path d="M17.0114-13.1243C17.6419-14.0961 18.3969-14.8431 19.2763-15.3571 20.1518-15.8712 21.1156-16.1282 22.1678-16.1282 23.9749-16.1282 25.3524-15.566 26.2961-14.4415 27.2478-13.3252 27.7257-11.7108 27.7257-9.59031L27.7257-0.000411226 22.6657-0.000411226 22.6657-8.2089 22.6657-8.57836C22.6737-8.7149 22.6817-8.90766 22.6817-9.15665 22.6817-10.269 22.5131-11.0722 22.1837-11.5662 21.8625-12.0682 21.3364-12.3212 20.6096-12.3212 19.6538-12.3212 18.9149-11.9236 18.3929-11.1326 17.8668-10.3495 17.5977-9.21297 17.5897-7.7271L17.5897-0.000575717 12.5296-0.000575717 12.5296-8.20906C12.5296-9.95194 12.377-11.0724 12.0799-11.5663 11.7787-12.0683 11.2446-12.3213 10.4735-12.3213 9.5097-12.3213 8.76271-11.9237 8.24066-11.1327 7.71458-10.3496 7.45355-9.22107 7.45355-7.74322L7.45355-0.000657962 2.39352-0.000657962 2.39352-15.7424 7.45355-15.7424 7.45355-13.4453C8.07199-14.3328 8.77883-15.0034 9.57394-15.4532 10.3771-15.903 11.2606-16.1279 12.2244-16.1279 13.3167-16.1279 14.2805-15.8628 15.1158-15.3408 15.9511-14.8147 16.5816-14.0757 17.0114-13.124Z" transform="matrix(1.00049 0 0 1 398.519 690.86)"/><path d="M7.91929-20.2077 7.91929-15.7419 13.1078-15.7419 13.1078-12.1437 7.91929-12.1437 7.91929-5.46129C7.91929-4.7304 8.06386-4.24046 8.35301-3.98344 8.64216-3.72643 9.21241-3.59792 10.0718-3.59792L12.658-3.59792 12.658 0.00030842 8.35301 0.00030842C6.36113 0.00030842 4.94754-0.409314 4.11224-1.23656 3.28497-2.07186 2.87538-3.47743 2.87538-5.46129L2.87538-12.1437 0.385504-12.1437 0.385504-15.7419 2.87538-15.7419 2.87538-20.2077Z" transform="matrix(1.00049 0 0 1 438.557 690.86)"/><path d="M18.2482-9.5899 18.2482 0 13.1881 0 13.1881-7.30893C13.1881-8.69044 13.156-9.63811 13.0917-10.1521 13.0275-10.6662 12.9191-11.0437 12.7705-11.2927 12.5777-11.614 12.3086-11.8629 11.9673-12.0477 11.634-12.2284 11.2525-12.3207 10.8268-12.3207 9.77464-12.3207 8.95136-11.9111 8.35303-11.0999 7.75065-10.2967 7.45347-9.17631 7.45347-7.74267L7.45347-0.000102807 2.42562-0.000102807 2.42562-21.8784 7.45347-21.8784 7.45347-13.445C8.21247-14.3526 9.01562-15.0273 9.86305-15.4691 10.7184-15.9068 11.6622-16.1277 12.6902-16.1277 14.5094-16.1277 15.8909-15.5655 16.8346-14.441 17.7743-13.3247 18.2482-11.7103 18.2482-9.58981Z" transform="matrix(1.00049 0 0 1 452.322 690.86)"/><path d="M18.1361-7.91929 18.1361-6.47362 6.36167-6.47362C6.49018-5.29299 6.91586-4.40948 7.64675-3.82317 8.37362-3.23283 9.39765-2.93967 10.7149-2.93967 11.775-2.93967 12.8553-3.09228 13.9597-3.40551 15.0721-3.72678 16.2126-4.20065 17.3812-4.83513L17.3812-0.963852C16.1925-0.514074 15.0038-0.176745 13.815 0.0481546 12.6264 0.281073 11.4376 0.401552 10.2489 0.401552 7.39765 0.401552 5.18083-0.321301 3.59854-1.76705 2.02436-3.21271 1.23717-5.24078 1.23717-7.85515 1.23717-10.4253 2.01224-12.4412 3.56636-13.9111 5.11648-15.3889 7.24889-16.1278 9.95969-16.1278 12.4334-16.1278 14.4133-15.3768 15.9031-13.8789 17.389-12.389 18.136-10.4012 18.136-7.9193ZM12.9637-9.5899C12.9637-10.5417 12.6826-11.3087 12.1284-11.887 11.5702-12.4733 10.8433-12.7705 9.94376-12.7705 8.9679-12.7705 8.17672-12.4974 7.56636-11.9513 6.95599-11.4051 6.57444-10.618 6.42582-9.5899Z" transform="matrix(1.00049 0 0 1 472.825 690.86)"/><path d="M2.65046-20.9787 8.69034-20.9787 16.3205-6.58579 16.3205-20.9787 21.4448-20.9787 21.4448 0 15.4049 0 7.77474-14.3929 7.77474 0 2.65046 0Z" transform="matrix(1.00049 0 0 1 502.384 690.86)"/><path d="M9.91117-12.5301C8.79479-12.5301 7.94335-12.1285 7.35704-11.3253 6.76671-10.5221 6.47354-9.36557 6.47354-7.85555 6.47354-6.34553 6.76671-5.18895 7.35704-4.38583 7.94336-3.59068 8.79469-3.19718 9.91117-3.19718 11.0035-3.19718 11.8388-3.59073 12.4171-4.38583 13.0034-5.18901 13.3006-6.34553 13.3006-7.85555 13.3006-9.36557 13.0034-10.5221 12.4171-11.3253 11.8388-12.1284 11.0035-12.5301 9.91117-12.5301ZM9.91117-16.1283C12.6179-16.1283 14.7342-15.3934 16.2563-13.9276 17.7743-12.4698 18.5374-10.4459 18.5374-7.85565 18.5374-5.27346 17.7743-3.24941 16.2563-1.78369 14.7342-0.325897 12.6179 0.400945 9.91117 0.400945 7.18844 0.400945 5.06404-0.325928 3.53397-1.78369 1.9999-3.24951 1.23687-5.27346 1.23687-7.85565 1.23687-10.4459 1.99989-12.4699 3.53397-13.9276 5.06404-15.3934 7.18844-16.1283 9.91117-16.1283Z" transform="matrix(1.00049 0 0 1 526.487 690.86)"/><path d="M2.24889-6.13632 2.24889-15.7424 7.30893-15.7424 7.30893-14.1682C7.30893-13.3088 7.3009-12.2406 7.29286-10.9555 7.28082-9.67039 7.2768-8.81103 7.2768-8.38531 7.2768-7.10825 7.30893-6.19265 7.37318-5.63842 7.44547-5.08022 7.55791-4.67863 7.71051-4.43363 7.92335-4.10032 8.19644-3.8433 8.52975-3.66259 8.85906-3.4899 9.24057-3.40557 9.67029-3.40557 10.7184-3.40557 11.5417-3.80715 12.144-4.61036 12.7424-5.41354 13.0436-6.52996 13.0436-7.96761L13.0436-15.7424 18.0714-15.7424 18.0714-0.000616839 13.0436-0.000616839 13.0436-2.28169C12.2806-1.35803 11.4774-0.679346 10.634-0.241595 9.78665 0.184085 8.85092 0.400945 7.82286 0.400945 6.01171 0.400945 4.6302-0.153243 3.67852-1.26966 2.72274-2.38203 2.24889-4.00452 2.24889-6.13693Z" transform="matrix(1.00049 0 0 1 546.275 690.86)"/><path d="M18.2482-9.5899 18.2482 0 13.1881 0 13.1881-7.341C13.1881-8.69836 13.156-9.63811 13.0917-10.1521 13.0275-10.6662 12.9191-11.0437 12.7705-11.2927 12.5777-11.614 12.3086-11.8629 11.9673-12.0477 11.634-12.2284 11.2525-12.3207 10.8268-12.3207 9.77464-12.3207 8.95136-11.9111 8.35303-11.0999 7.75065-10.2967 7.45347-9.17631 7.45347-7.74267L7.45347-0.000102807 2.42562-0.000102807 2.42562-15.7418 7.45347-15.7418 7.45347-13.4447C8.21247-14.3523 9.01562-15.027 9.86305-15.4688 10.7184-15.9065 11.6622-16.1274 12.6902-16.1274 14.5094-16.1274 15.8909-15.5652 16.8346-14.4407 17.7743-13.3244 18.2482-11.71 18.2482-9.58951Z" transform="matrix(1.00049 0 0 1 566.779 690.86)"/><path d="M2.65046-20.9787 11.63-20.9787C14.2966-20.9787 16.3406-20.3844 17.7663-19.1956 19.1999-18.015 19.9189-16.3282 19.9189-14.1356 19.9189-11.9389 19.2-10.2483 17.7663-9.05952 16.3407-7.87087 14.2966-7.27644 11.63-7.27644L8.0478-7.27644 8.0478 0.00030842 2.65046 0.00030842ZM8.0478-17.0592 8.0478-11.196 11.0517-11.196C12.0998-11.196 12.9071-11.4531 13.4773-11.9671 14.0556-12.4811 14.3447-13.204 14.3447-14.1357 14.3447-15.0754 14.0556-15.7983 13.4773-16.3043 12.9071-16.8063 12.0999-17.0593 11.0517-17.0593Z" transform="matrix(1.00049 0 0 1 597.306 690.86)"/><path d="M14.1194-11.4537C13.6697-11.6545 13.2239-11.8071 12.7862-11.9035 12.3565-12.0079 11.9227-12.0641 11.485-12.0641 10.1879-12.0641 9.19193-11.6464 8.49727-10.8111 7.7985-9.98381 7.45317-8.80317 7.45317-7.26107L7.45317-0.000359823 2.42531-0.000359823 2.42531-15.7421 7.45317-15.7421 7.45317-13.1559C8.09571-14.184 8.83468-14.931 9.66988-15.4048 10.5132-15.8867 11.5212-16.1276 12.6898-16.1276 12.8585-16.1276 13.0432-16.1156 13.236-16.0955 13.4368-16.0835 13.7259-16.0554 14.1034-16.0152Z" transform="matrix(1.00049 0 0 1 618.416 690.86)"/><path d="M9.91117-12.5301C8.79479-12.5301 7.94335-12.1285 7.35704-11.3253 6.76671-10.5221 6.47354-9.36557 6.47354-7.85555 6.47354-6.34553 6.76671-5.18895 7.35704-4.38583 7.94336-3.59068 8.79469-3.19718 9.91117-3.19718 11.0035-3.19718 11.8388-3.59073 12.4171-4.38583 13.0034-5.18901 13.3006-6.34553 13.3006-7.85555 13.3006-9.36557 13.0034-10.5221 12.4171-11.3253 11.8388-12.1284 11.0035-12.5301 9.91117-12.5301ZM9.91117-16.1283C12.6179-16.1283 14.7342-15.3934 16.2563-13.9276 17.7743-12.4698 18.5374-10.4459 18.5374-7.85565 18.5374-5.27346 17.7743-3.24941 16.2563-1.78369 14.7342-0.325897 12.6179 0.400945 9.91117 0.400945 7.18844 0.400945 5.06404-0.325928 3.53397-1.78369 1.9999-3.24951 1.23687-5.27346 1.23687-7.85565 1.23687-10.4459 1.99989-12.4699 3.53397-13.9276 5.06404-15.3934 7.18844-16.1283 9.91117-16.1283Z" transform="matrix(1.00049 0 0 1 632.615 690.86)"/><path d="M2.42562-15.7417 7.45347-15.7417 7.45347-0.288886C7.45347 1.81947 6.94346 3.42983 5.92741 4.54621 4.91943 5.65857 3.45368 6.21681 1.52606 6.21681L-0.963811 6.21681-0.963811 2.90768-0.0803125 2.90768C0.87145 2.90768 1.52604 2.69082 1.87939 2.26514 2.24081 1.83544 2.42555 0.984064 2.42555-0.288989ZM2.42562-21.8781 7.45347-21.8781 7.45347-17.7658 2.42562-17.7658Z" transform="matrix(1.00049 0 0 1 652.403 690.86)"/><path d="M18.1361-7.91929 18.1361-6.47362 6.36167-6.47362C6.49018-5.29299 6.91586-4.40948 7.64675-3.82317 8.37362-3.23283 9.39765-2.93967 10.7149-2.93967 11.775-2.93967 12.8553-3.09228 13.9597-3.40551 15.0721-3.72678 16.2126-4.20065 17.3812-4.83513L17.3812-0.963852C16.1925-0.514074 15.0038-0.176745 13.815 0.0481546 12.6264 0.281073 11.4376 0.401552 10.2489 0.401552 7.39765 0.401552 5.18083-0.321301 3.59854-1.76705 2.02436-3.21271 1.23717-5.24078 1.23717-7.85515 1.23717-10.4253 2.01224-12.4412 3.56636-13.9111 5.11648-15.3889 7.24889-16.1278 9.95969-16.1278 12.4334-16.1278 14.4133-15.3768 15.9031-13.8789 17.389-12.389 18.136-10.4012 18.136-7.9193ZM12.9637-9.5899C12.9637-10.5417 12.6826-11.3087 12.1284-11.887 11.5702-12.4733 10.8433-12.7705 9.94376-12.7705 8.9679-12.7705 8.17672-12.4974 7.56636-11.9513 6.95599-11.4051 6.57444-10.618 6.42582-9.5899Z" transform="matrix(1.00049 0 0 1 662.275 690.86)"/><path d="M15.1321-15.2442 15.1321-11.1479C14.4574-11.6178 13.7707-11.9672 13.076-12.192 12.3892-12.4169 11.6784-12.5294 10.9395-12.5294 9.53397-12.5294 8.43764-12.1157 7.64654-11.2925 6.86345-10.4773 6.47393-9.3328 6.47393-7.85485 6.47393-6.38503 6.86348-5.24048 7.64654-4.41721 8.43767-3.60198 9.53397-3.19638 10.9395-3.19638 11.7186-3.19638 12.4656-3.30883 13.1724-3.53371 13.8792-3.76663 14.5297-4.11601 15.1321-4.57781L15.1321-0.465549C14.349-0.176406 13.5498 0.0364346 12.7387 0.176992 11.9355 0.325578 11.1203 0.401881 10.297 0.401881 7.45779 0.401881 5.23696-0.324992 3.63061-1.78276 2.03228-3.23655 1.23717-5.2605 1.23717-7.85472 1.23717-10.457 2.03232-12.485 3.63061-13.9428 5.23696-15.3966 7.45779-16.1275 10.297-16.1275 11.1203-16.1275 11.9355-16.0512 12.7387-15.9026 13.5418-15.762 14.337-15.5411 15.1321-15.244Z" transform="matrix(1.00049 0 0 1 681.81 690.86)"/><path d="M7.91929-20.2077 7.91929-15.7419 13.1078-15.7419 13.1078-12.1437 7.91929-12.1437 7.91929-5.46129C7.91929-4.7304 8.06386-4.24046 8.35301-3.98344 8.64216-3.72643 9.21241-3.59792 10.0718-3.59792L12.658-3.59792 12.658 0.00030842 8.35301 0.00030842C6.36113 0.00030842 4.94754-0.409314 4.11224-1.23656 3.28497-2.07186 2.87538-3.47743 2.87538-5.46129L2.87538-12.1437 0.385504-12.1437 0.385504-15.7419 2.87538-15.7419 2.87538-20.2077Z" transform="matrix(1.00049 0 0 1 698.878 690.86)"/></g></svg>